# xmcd CD database file
#
# Track frame offsets:
#	150
#	17379
#	45961
#	73736
#	108519
#	124574
#	148889
#	182021
#
# Disc length: 2853 seconds
#
# Revision: 0
# Processed by: cddbd v1.5.2PL0 Copyright (c) Steve Scherf et al.
# Submitted via: CDex 1.70beta2
#
DISCID=660b2308
DTITLE=Jarrett Tyner Corea and Hancock - Jarrett Tyner Corea and Hancock
DYEAR=1900
DGENRE=Jazz
TTITLE0=Margot
TTITLE1=Love No. 1
TTITLE2=Tones for Joan's Bones
TTITLE3=This Is New
TTITLE4=Lazy Bird
TTITLE5=In Your Own Sweet Way
TTITLE6=Einbahnstrasse
TTITLE7=Unknown Artist - Track08
EXTD=
EXTT0=
EXTT1=
EXTT2=
EXTT3=
EXTT4=
EXTT5=
EXTT6=
EXTT7=
PLAYORDER=
